<svg xmlns="http://www.w3.org/2000/svg" width="24" height="24" fill="none" id="meta">
  <path fill="#000" fill-rule="evenodd" d="M7.703 7a3.056 3.056 0 0 0-2.82 1.88c-.433 1.04-1.017 3.615-1.281 4.845-.074.34-.104.633-.08.896.078.88.35 1.3.606 1.516.267.227.673.363 1.267.363.653 0 1.26-.337 1.607-.89l1.645-2.632 2.187-3.645-.51-.85A3.056 3.056 0 0 0 7.704 7ZM12 7.39a5.056 5.056 0 0 0-8.963.721c-.52 1.249-1.143 4.038-1.39 5.194a4.988 4.988 0 0 0-.118 1.494c.111 1.24.54 2.214 1.305 2.863.753.639 1.687.838 2.561.838a3.895 3.895 0 0 0 3.303-1.83l1.65-2.64.01-.015L12 11.277l1.642 2.738.01.015 1.65 2.64a3.895 3.895 0 0 0 3.302 1.83c.983 0 2.005-.28 2.772-1.086.76-.799 1.124-1.96 1.124-3.414 0-.923-.35-2.266-.675-3.341a43.426 43.426 0 0 0-.815-2.422A5.056 5.056 0 0 0 12 7.39Zm1.166 1.943 2.186 3.645 1.645 2.631c.346.554.954.891 1.607.891.617 0 1.043-.17 1.323-.465.288-.302.573-.89.573-2.035 0-.584-.255-1.655-.59-2.764a41.348 41.348 0 0 0-.774-2.303 3.056 3.056 0 0 0-5.46-.45l-.51.85Z" clip-rule="evenodd"></path>
</svg>
